<?xml version="1.0" encoding="utf-8"?>
<!-- Generator: Adobe Illustrator 22.1.0, SVG Export Plug-In . SVG Version: 6.00 Build 0)  -->
<svg version="1.1" id="Calque_1" xmlns="http://www.w3.org/2000/svg" xmlns:xlink="http://www.w3.org/1999/xlink" x="0px" y="0px"
	 viewBox="0 0 595.3 562.9" style="enable-background:new 0 0 595.3 562.9;" xml:space="preserve">
<style type="text/css">
	.st0{fill:#FFFFFF;}
</style>
<g>
	<g>
		<path class="st0" d="M194.3,289.2L194.3,289.2c-15.1-15.1-15.1-39.8,0-54.9l161-161c15.1-15.1,39.8-15.1,54.9,0l0,0
			c15.1,15.1,15.1,39.8,0,54.9l-161,161C234,304.3,209.3,304.3,194.3,289.2z"/>
		<path class="st0" d="M293.8,118.1l-44.7-44.7c-15.1-15.1-39.8-15.1-54.9,0h0c-15.1,15.1-15.1,39.8,0,54.9l0,0h89.4L293.8,118.1z"
			/>
		<path class="st0" d="M310.5,244.5l44.7,44.7c15.1,15.1,39.8,15.1,54.9,0v0c15.1-15.1,15.1-39.8,0-54.9l-4.9-4.9h-79.6L310.5,244.5
			z"/>
		<path class="st0" d="M416,220.1c21.3,0,38.8-17.5,38.8-38.8v0c0-21.3-17.5-38.8-38.8-38.8h-2.9l-77.6,77.6H416z"/>
		<path class="st0" d="M188.4,142.5c-21.3,0-38.8,17.5-38.8,38.8v0c0,21.3,17.5,38.8,38.8,38.8h2.9l77.6-77.6H188.4z"/>
		<path class="st0" d="M341.9,75.5v-8c0-21.3-17.5-38.8-38.8-38.8c-21.3,0-38.8,17.5-38.8,38.8v9.8l37.9,37.9L341.9,75.5z"/>
		<path class="st0" d="M264.3,290v8c0,21.3,17.5,38.8,38.8,38.8c21.3,0,38.8-17.5,38.8-38.8v-9.8L304,250.3L264.3,290z"/>
	</g>
	<g>
		<path class="st0" d="M112.2,450.8c0,0-10.8-13.6,0-20.4s17.7,4.1,17.7,4.1s5.1-11.4,29.1-11.4s30.8,13.9,30.8,13.9
			s15.4-13.9,34.2-13.9s38.2,11.7,38.2,27.7c0,16,0,78.7,0,78.7H237l-0.6-71.7c0,0-2.3-10.9-14.2-10.9s-16.5,10.9-16.5,10.9
			c0-0.1-1.1,71.7-1.1,71.7H176l-1.1-71.7c0,0-3.4-12-14.2-10.9c-10.8,1.1-17.7,4.6-17.7,13.7s-0.6,63.8-0.6,63.8s-4.6,6.8-14.2,7.7
			c-9.7,0.9-14.8-11.6-14.8-11.6L112.2,450.8z"/>
		<path class="st0" d="M328.3,423.1c-32.3,0-36.1,9.8-40.6,15.1c-4.6,5.3,3,22.8,22.8,12.5c0,0,9.1-4.6,17.1-3.4
			c8,1.1,13.7,17.1,1.9,18.6c-11.8,1.5-51,5.8-53.6,25.5c-3.4,26.7,12.5,40.8,36.5,40.8s29.3-12.3,29.3-12.3v12.3h24.3v-79.1
			C365.9,452.9,360.6,423.1,328.3,423.1z M319.2,508.4c-12.2-0.4-14.4-12.2-8.4-18.6c6.1-6.5,26.6-5.7,26.6-5.7
			C337.4,497,331.4,508.8,319.2,508.4z"/>
		<path class="st0" d="M416.8,505v27.1h-14.4c0,0-24.7-3.5-24.7-27.1c0-23.6,0-99.9,0-99.9s0-12.5,16-12.5s14.1,17.1,14.1,17.1
			l-0.8,86.6C407,496.2,406.6,505,416.8,505z"/>
		<path class="st0" d="M416.8,455.2v-28.5h12.9c0,0,11,0.8,11-12.2s0-18.2,0-18.2h27.4v28.9h16c0,0,12.9,1.1,12.9,14.1
			s-9.9,16.7-9.9,16.7h-16l-0.4,40.3c0,0,0,9.5,8.7,9.5c8.7,0,8.7,0,8.7,0v28.5h-31.3c0,0-18.8-8.4-18.8-42.9s0-34.6,0-34.6
			L416.8,455.2z"/>
	</g>
</g>
</svg>
