<?xml version="1.0" encoding="utf-8"?>
<!-- Generator: Adobe Illustrator 22.1.0, SVG Export Plug-In . SVG Version: 6.00 Build 0)  -->
<svg version="1.1" id="Calque_1" xmlns="http://www.w3.org/2000/svg" xmlns:xlink="http://www.w3.org/1999/xlink" x="0px" y="0px"
	 viewBox="0 0 595.3 202.5" style="enable-background:new 0 0 595.3 202.5;" xml:space="preserve">
<style type="text/css">
	.st0{fill:#FFFFFF;}
</style>
<g>
	<g>
		<path class="st0" d="M67.2,153.2L67.2,153.2c-6.5-6.5-6.5-17.2,0-23.7l69.4-69.4c6.5-6.5,17.2-6.5,23.7,0l0,0
			c6.5,6.5,6.5,17.2,0,23.7l-69.4,69.4C84.3,159.7,73.7,159.7,67.2,153.2z"/>
		<path class="st0" d="M110.1,79.4L90.8,60.1c-6.5-6.5-17.2-6.5-23.7,0h0c-6.5,6.5-6.5,17.2,0,23.7l0,0h38.5L110.1,79.4z"/>
		<path class="st0" d="M117.3,134l19.3,19.3c6.5,6.5,17.2,6.5,23.7,0v0c6.5-6.5,6.5-17.2,0-23.7l-2.1-2.1h-34.4L117.3,134z"/>
		<path class="st0" d="M162.8,123.4c9.2,0,16.7-7.5,16.7-16.7v0c0-9.2-7.5-16.7-16.7-16.7h-1.3l-33.5,33.5H162.8z"/>
		<path class="st0" d="M64.6,89.9c-9.2,0-16.7,7.5-16.7,16.7v0c0,9.2,7.5,16.7,16.7,16.7h1.3l33.5-33.5H64.6z"/>
		<path class="st0" d="M130.8,61.1v-3.5c0-9.2-7.5-16.7-16.7-16.7c-9.2,0-16.7,7.5-16.7,16.7v4.2l16.4,16.4L130.8,61.1z"/>
		<path class="st0" d="M97.4,153.6v3.5c0,9.2,7.5,16.7,16.7,16.7c9.2,0,16.7-7.5,16.7-16.7v-4.2l-16.4-16.4L97.4,153.6z"/>
	</g>
	<path class="st0" d="M208,83.8c0,0-9.5-11.9,0-17.9s15.5,3.6,15.5,3.6s4.5-10,25.5-10s27,12.2,27,12.2s13.5-12.2,30-12.2
		s33.5,10.2,33.5,24.3s0,69.1,0,69.1h-22l-0.5-63c0,0-2-9.5-12.5-9.5S290,90,290,89.9s-1,63-1,63h-25l-1-63c0,0-3-10.5-12.5-9.5
		s-15.5,4-15.5,12s-0.5,56-0.5,56s-4,5.9-12.5,6.7s-13-10.2-13-10.2L208,83.8z"/>
	<path class="st0" d="M397.7,59.5c-28.3,0-31.7,8.6-35.7,13.2c-4,4.7,2.7,20,20,11c0,0,8-4,15-3s12,15,1.7,16.3
		c-10.3,1.3-44.8,5.1-47,22.3c-3,23.4,11,35.8,32,35.8s25.7-10.8,25.7-10.8v10.8h21.3V85.7C430.7,85.7,426,59.5,397.7,59.5z
		 M389.7,134.4c-10.7-0.3-12.7-10.7-7.3-16.3c5.3-5.7,23.3-5,23.3-5C405.7,124.4,400.3,134.7,389.7,134.4z"/>
	<path class="st0" d="M475.3,131.4v23.8h-12.7c0,0-21.7-3.1-21.7-23.8s0-87.7,0-87.7s0-11,14-11s12.3,15,12.3,15l-0.7,76
		C466.7,123.7,466.3,131.4,475.3,131.4z"/>
	<path class="st0" d="M475.3,87.7v-25h11.3c0,0,9.7,0.7,9.7-10.7s0-16,0-16h24v25.3h14c0,0,11.3,1,11.3,12.3S537,88.4,537,88.4h-14
		l-0.3,35.3c0,0,0,8.3,7.7,8.3c7.7,0,7.7,0,7.7,0v23.1l-27.5,1.9c0,0-16.5-7.3-16.5-37.7s0-30.3,0-30.3L475.3,87.7z"/>
</g>
</svg>
